inDegrees=no
num_controls=7
num_derivatives=13
num_iterations=139
num_multipliers=7
num_parameters=0
num_slacks=7
num_states=26
objective=5.227294
objective_accelerations=0.485959
objective_balance=0.054310
objective_effort=0.244414
objective_height=4.356729
objective_ligament=0.085882
solver_duration=1540.021225
status=Solve_Succeeded
success=true
DataType=double
version=3
OpenSimVersion=4.4-2022-07-23-0e9fedc
endheader
time	/jointset/ground_pelvis/pelvis_tilt/value	/jointset/ground_pelvis/pelvis_tx/value	/jointset/ground_pelvis/pelvis_ty/value	/jointset/hip_l/hip_flexion_l/value	/jointset/hip_l/hip_adduction_l/value	/jointset/hip_l/hip_rotation_l/value	/jointset/back/lumbar_extension/value	/jointset/patellofemoral_l/patellar_flexion_l/value	/jointset/knee_l/knee_flexion_l/value	/jointset/knee_l/knee_adduction_l/value	/jointset/knee_l/knee_rotation_l/value	/jointset/ankle_l/ankle_angle_l/value	/jointset/subtalar_l/subtalar_angle_l/value	/jointset/ground_pelvis/pelvis_tilt/speed	/jointset/ground_pelvis/pelvis_tx/speed	/jointset/ground_pelvis/pelvis_ty/speed	/jointset/hip_l/hip_flexion_l/speed	/jointset/hip_l/hip_adduction_l/speed	/jointset/hip_l/hip_rotation_l/speed	/jointset/back/lumbar_extension/speed	/jointset/patellofemoral_l/patellar_flexion_l/speed	/jointset/knee_l/knee_flexion_l/speed	/jointset/knee_l/knee_adduction_l/speed	/jointset/knee_l/knee_rotation_l/speed	/jointset/ankle_l/ankle_angle_l/speed	/jointset/subtalar_l/subtalar_angle_l/speed	/forceset/tau_hip_flexion_l	/forceset/tau_hip_adduction_l	/forceset/tau_hip_rotation_l	/forceset/tau_knee_flexion_l	/forceset/tau_ankle_angle_l	/forceset/tau_subtalar_angle_l	/forceset/tau_lumbar_extension	lambda_cid13_p0	lambda_cid13_p1	lambda_cid13_p2	lambda_cid13_p3	lambda_cid13_p4	lambda_cid13_p5	lambda_cid14_p0	/jointset/ground_pelvis/pelvis_tilt/accel	/jointset/ground_pelvis/pelvis_tx/accel	/jointset/ground_pelvis/pelvis_ty/accel	/jointset/hip_l/hip_flexion_l/accel	/jointset/hip_l/hip_adduction_l/accel	/jointset/hip_l/hip_rotation_l/accel	/jointset/back/lumbar_extension/accel	/jointset/patellofemoral_l/patellar_flexion_l/accel	/jointset/knee_l/knee_flexion_l/accel	/jointset/knee_l/knee_adduction_l/accel	/jointset/knee_l/knee_rotation_l/accel	/jointset/ankle_l/ankle_angle_l/accel	/jointset/subtalar_l/subtalar_angle_l/accel	gamma_cid13_p0	gamma_cid13_p1	gamma_cid13_p2	gamma_cid13_p3	gamma_cid13_p4	gamma_cid13_p5	gamma_cid14_p0
0.5	-0.3543075711505263	-0.03824343022795638	0.7907209487785531	0.9917683089368992	-0.4285753179537896	-0.299617639919959	-0.2525592008896856	0.6279511053987168	0.6279511053985916	-0.1627407092929743	-0.172828208391438	0.0248595830416945	-0.0658411438358999	-0.8249152756622862	-0.2436103431205735	-0.3932050222073836	2.180684741745149	-0.2158258727042363	0.6569124978928651	-0.1281598796231378	1.500183330553645	1.500183330553733	0.01919105790267034	-0.0174271301138522	0.2545273063426163	-0.115616945207154	-0.1783644488964558	0.02669368735252821	-0.007721415747300208	-0.171651518263698	0.06170039867064252	0.04822321043050328	0.1730685403380611	-13.94516303048381	-22.23586302312889	7.474464568483915	-3.625479842995209	-529.6610905647121	-65.98746581547562	-33.77427038001701	0.6004261155734659	0.4754995475760626	-0.2713930624416089	-1.226464538726831	0.5952266958247487	-0.1261754666959194	1.04474758461251	-1.012532742687625	-1.012532742687617	-0.0531420336041051	0.1262948441705096	-0.1783992073013853	0.5235455725941047	-4.369873169380513e-08	-8.611375915309514e-07	-6.840136936523659e-08	-2.230931017659761e-07	-1.073630762507293e-07	9.045254118797447e-09	-1.338742481658161e-07
0.51	-0.3625250239974056	-0.04065546387891037	0.7867761439604889	1.013509949490145	-0.4307042248652856	-0.2930571829631245	-0.2537893486065277	0.6429003979891686	0.6429003979890833	-0.1625520419050514	-0.1729978830496219	0.02739535749421949	-0.06697182375046722	-0.8184613499097576	-0.2387721614837603	-0.3956748005391274	2.167341437954889	-0.2099390750600225	0.6550852304665735	-0.1178955039665425	1.489473428346024	1.489473428346133	0.01854646821918832	-0.01650996854237267	0.252585201516987	-0.1105184838055295	-0.1839503740331342	0.02794878034355328	-0.00756067711895388	-0.1729722868116756	0.0612306907017027	0.04910680637463177	0.1772406390388641	-14.24053350192459	-22.51300859368951	7.455959589876773	-3.64534110587715	-532.3481163889531	-65.68543154845898	-33.1362019834005	0.684981167199853	0.4915676778570893	-0.2226203242480954	-1.433539154443489	0.588002960252351	-0.2251498907936274	1.013406523610465	-1.130456191043605	-1.130456191040399	-0.06966461610406965	0.07413299704928919	-0.2084971561191602	0.5032207270898394	-4.888498638568027e-08	-8.191784047452897e-07	-5.499393594517485e-08	-2.122215691814498e-07	-1.04117918498107e-07	1.530500575596231e-08	-1.317743222576082e-07
0.52	-0.3706745165143515	-0.04301839767227175	0.7828090713379656	1.035109101834426	-0.432773744468037	-0.2865178281825992	-0.2549176277733196	0.6577365441112979	0.657736544111248	-0.1623697298500123	-0.1731584448554173	0.02991043469129905	-0.06805147419038983	-0.8113232096728944	-0.2337903716020502	-0.3976585830991823	2.152187099953929	-0.2039484109544866	0.6526920626323655	-0.1077861696128292	1.477554036888631	1.47755403688876	0.01791999132034692	-0.01560455963438524	0.2503878552543372	-0.1054110502781756	-0.1895362991698269	0.02920387333453615	-0.007399938490522259	-0.1742930553596824	0.06076098273273826	0.04999040231870065	0.1814127377396831	-14.54355957899702	-22.78987450247518	7.438621830911344	-3.658038666803687	-535.1566994569966	-65.41458017359707	-32.48874667561402	0.7372690124406206	0.5042211965554045	-0.1741939081038115	-1.588671380866964	0.6159999880892171	-0.2393555482791245	1.013739324036353	-1.25443059264207	-1.254430592642072	-0.04951947667593105	0.1239443114721951	-0.2294474947055494	0.5253399977400069	-5.335988436803069e-08	-7.726346532067158e-07	-4.091989370853428e-08	-2.002260201994007e-07	-9.995465835289313e-08	2.126655490370327e-08	-1.28817366219079e-07
0.53	-0.3787493424618246	-0.04533085528365725	0.7788246020628381	1.056547888515752	-0.4347828824593705	-0.2800050320298236	-0.2559456563047453	0.6724475408747849	0.6724475408748153	-0.1621936017523053	-0.1733098431937798	0.03240228187320486	-0.06908004233826072	-0.803533445865811	-0.2286821122036429	-0.3991524101122877	2.135279481516511	-0.1978688842332712	0.6497767273885753	-0.09785982576755556	1.464453170353697	1.464453170353696	0.01730762379537574	-0.01467619173239275	0.2479413550208196	-0.1003072487748355	-0.1949510506250761	0.03022345034859361	-0.007272755560533884	-0.175666303492756	0.06037332080669763	0.05083667820743107	0.1854145070370292	-14.81624428412437	-23.05721937995375	7.421336059770507	-3.658904993808829	-537.8675811398876	-65.15292119462457	-31.83446427899784	0.816119824441194	0.5169452970922584	-0.1245673793268354	-1.785410758135729	0.6055885393248146	-0.3312816402341268	0.9760385510753082	-1.366711049449054	-1.366711049468572	-0.06693292255891545	0.07715202618003067	-0.2583078080991773	0.5023229993034974	-6.22210724016247e-08	-7.187839262238598e-07	-8.855468002329786e-09	-1.817045102315402e-07	-1.021036018554392e-07	2.742217119095982e-08	-1.272085244689448e-07
0.54	-0.3867430128193188	-0.04759166690393702	0.7748276764612966	1.077808878276105	-0.436730893278457	-0.2735241210550579	-0.2568756300704587	0.6870217696998109	0.6870217696999287	-0.162023564836223	-0.1734519840538317	0.03486845274868607	-0.07005768791656382	-0.7950920916747258	-0.2234611733809028	-0.4001498483819464	2.116627715760847	-0.1917229765045537	0.6463150270325734	-0.0881752164701661	1.450200449197561	1.450200449197429	0.01670175498434857	-0.0137530639657066	0.2452525939703269	-0.09522653636459506	-0.2003658020803456	0.03124302736260064	-0.007145572630301061	-0.1770395516258793	0.05998565888062735	0.05168295409608829	0.1894162763343908	-15.09592136509074	-23.32460075961174	7.405496374229877	-3.656993107546863	-540.6924064294953	-64.92150499257468	-31.17582429933655	0.8675870892411721	0.5267570814219675	-0.07491615941442054	-1.937500844516432	0.6292761895896818	-0.3486285707213744	0.9653924144597672	-1.484801516882522	-1.484801516882524	-0.04821973388708552	0.1228962844110363	-0.2778996581006001	0.5207221791201447	-7.593517708765849e-08	-6.568488859835004e-07	4.311321175530738e-08	-1.559627881091646e-07	-1.112362600321027e-07	3.379250005810596e-08	-1.270912134208645e-07
0.55	-0.3946491541143019	-0.04979977296741992	0.7708232735914959	1.098874823498828	-0.4386171504750166	-0.2670803037581072	-0.2577100240531847	0.701447705642771	0.701447705642762	-0.1618596479409465	-0.1735846880098554	0.03730648914746592	-0.07098470080798662	-0.7860319573909462	-0.2181464657952643	-0.4006467597370859	2.09628162008859	-0.1855228820932171	0.6423521331617942	-0.07875741058794951	1.434804717557654	1.434804717557666	0.0160884066433344	-0.01279479526003026	0.2423163109606536	-0.09018453662727689	-0.2056255893204806	0.03215089896477286	-0.007043762656957278	-0.1784105578396835	0.0596184948581452	0.05242106145627291	0.1932585730614418	-15.36585049304554	-23.54760526035024	7.383602735003274	-3.609603442262039	-543.4138311249221	-64.62681289651928	-30.51534291539325	0.940861680188035	0.5358352408356227	-0.02450699086912579	-2.125117566402304	0.6162973870235345	-0.434657930214497	0.9219000987021563	-1.594236857799376	-1.59423685777769	-0.06698481291081532	0.08127753189347713	-0.3072696635765349	0.4947561329075549	-8.239516358883258e-08	-6.001307599439725e-07	7.211911371262449e-08	-1.369154036146363e-07	-1.114982438755386e-07	3.911634419817312e-08	-1.238600418756184e-07
0.5600000000000001	-0.4024615670500088	-0.05195433042630637	0.7668164159346825	1.119728917037264	-0.4404412224634394	-0.2606790230268712	-0.2584518548923678	0.7157142286952788	0.7157142286951456	-0.1617016830147772	-0.1737080122051955	0.03971400730790929	-0.07186153024966228	-0.7763464198174593	-0.212751452461612	-0.4006408057844904	2.074257378903471	-0.1792859348771481	0.6378077138926772	-0.06966258776173533	1.41831787110756	1.418317871107717	0.01551136115422356	-0.01187711182445062	0.2391489463039447	-0.0851898464151626	-0.2108853765605939	0.03305877056689405	-0.006941952683420061	-0.1797815640535307	0.05925133083562954	0.0531591688163822	0.1971008697885517	-15.63999973043787	-23.77121342769547	7.363339039695933	-3.574353936707676	-546.2143652816003	-64.35773390999769	-29.86054213295574	0.9926677471828627	0.542818231024745	0.02565690213263237	-2.273129947088923	0.6366467505362152	-0.4649336503888308	0.9007958032595407	-1.703024478919932	-1.703024478919895	-0.04095916350638334	0.1147792303918102	-0.3241159875077078	0.5112602740794232	-8.015020826817533e-08	-5.496729309454423e-07	7.356968230955845e-08	-1.259012242735243e-07	-1.011154185191015e-07	4.318440666574555e-08	-1.168922377337734e-07
0.5700000000000001	-0.4101741468409605	-0.05405459767371618	0.7628121247413749	1.140354645254134	-0.4422027595109178	-0.2543258344100752	-0.2591044025901603	0.729810517152446	0.729810517152313	-0.1615493291162939	-0.1738221386173625	0.04208871566926095	-0.07268866127252137	-0.7660691720163406	-0.2072936583316969	-0.4001330790529548	2.050617653065925	-0.1730228097162082	0.6327436833973591	-0.06091725028851562	1.400764777213636	1.400764777213674	0.01495627200818483	-0.01094956289720493	0.2357545261327225	-0.08025226205936077	-0.2159342814363845	0.03380673795857401	-0.006863602860214373	-0.1812190909021113	0.05893820731271734	0.05380328868233741	0.2007397265229217	-15.89249347196485	-23.95884520247306	7.338539692777585	-3.493933654674405	-548.8898132097669	-64.04999322856659	-29.21383808376479	1.060309471126941	0.5484868731256173	0.07596458389668427	-2.449985168452321	0.6210135059665478	-0.5401685724115646	0.8508579461197002	-1.807685721675626	-1.80768572169339	-0.06334788456294184	0.0815748184409323	-0.3528534392297702	0.4826968865380895	-7.546857734435796e-08	-5.029910817989925e-07	6.7177123883793e-08	-1.174370570966857e-07	-8.849420538396753e-08	4.597109067444544e-08	-1.09013747212504e-07
0.58	-0.4177809429189989	-0.05610004160599678	0.7588154376204289	1.160735857959352	-0.4439016916853675	-0.2480258922629174	-0.2596716058678673	0.7437260278952744	0.7437260278951238	-0.1614026389281367	-0.1739270231213395	0.04442833014743467	-0.07346687857778088	-0.7551896772331645	-0.2017867894357719	-0.3991199913121823	2.025354276573795	-0.1667649602715011	0.6271584199697057	-0.05259370374462285	1.382162328237832	1.382162328237751	0.01437861908572576	-0.01002873018796157	0.2321301696694867	-0.07540710289525904	-0.2209831863122058	0.03455470535018027	-0.006785253036979381	-0.1826566177507226	0.05862508378976791	0.05444740854819232	0.2043785832573104	-16.14916012354956	-24.14700694923853	7.315264874634391	-3.426310844528964	-551.6454460561754	-63.76695579048862	-28.57496320425319	1.113117143594537	0.5526331842267548	0.1267291039800532	-2.597860078005985	0.6355916072896892	-0.5691802368558021	0.8164376173944038	-1.912895495296014	-1.912895495296018	-0.0454719187904223	0.1134359867914593	-0.3701032459104006	0.4927752357394677	-6.76136014489834e-08	-4.612267878087409e-07	5.05702604982335e-08	-1.122938359942494e-07	-7.295788258355397e-08	4.708900273670673e-08	-9.994924652268199e-08
0.59	-0.4252761003234889	-0.05809022496627333	0.7548313872295631	1.180856652342421	-0.4455380343808607	-0.2417843486608963	-0.2601576835011092	0.757450428823721	0.7574504288236182	-0.1612616242384311	-0.1740226494263463	0.04673061995739592	-0.07419703013450475	-0.743747771465772	-0.1962462114077377	-0.3976063152094172	1.998548145245074	-0.16050763028721	0.6210606209616538	-0.04470389235385945	1.362552999928454	1.362552999928421	0.01382790943672301	-0.009100574739529167	0.2282923323792692	-0.0706405366945399	-0.2258078326867648	0.03514675550622643	-0.006727531905351201	-0.1841362673710162	0.05836372267816118	0.05500556836525809	0.2078083535016986	-16.38249942543949	-24.30300381166657	7.288099174380267	-3.323670714911128	-554.2456536645143	-63.45179569459529	-27.94379228969832	1.173832730488526	0.5552989378105549	0.1762398400928248	-2.760457610294734	0.6202550583156442	-0.6435991470727216	0.7629424829019031	-2.009661199672578	-2.009661199665385	-0.05941090935426833	0.08192873903665245	-0.3959589683838854	0.466063421781167	-5.957224661906946e-08	-4.19636836328174e-07	3.370728812642001e-08	-1.068464152260926e-07	-5.809536360163898e-08	4.730571599605153e-08	-9.065434764655438e-08
